HIERARCHY
ROOT Hips
{
     OFFSET 1.88212 96.90440 -13.34250
     CHANNELS 6 Xposition Yposition Zposition Zrotation Xrotation Yrotation
     JOINT Spine
     {
          OFFSET 0.00000 11.89050 0.00000
          CHANNELS 3 Zrotation Xrotation Yrotation
          JOINT Spine1
          {
               OFFSET -0.00000 25.65740 0.12766
               CHANNELS 3 Zrotation Xrotation Yrotation
               JOINT HEad
               {
                    OFFSET 0.00000 8.73416 0.01134
                    CHANNELS 3 Zrotation Xrotation Yrotation
                    End Site
                    {
                         OFFSET -0.29000 12.77420 2.51395
                    }
               }
               JOINT LeftShoulder1
               {
                    OFFSET 8.99000 -0.36225 -0.22000
                    CHANNELS 3 Zrotation Xrotation Yrotation
                    JOINT LeftArm
                    {
                         OFFSET 10.28270 -0.00338 0.32212
                         CHANNELS 3 Zrotation Xrotation Yrotation
                         JOINT LeftForeArm
                         {
                              OFFSET 32.76690 0.09914 -1.42434
                              CHANNELS 3 Zrotation Xrotation Yrotation
                              JOINT LeftHand
                              {
                                   OFFSET 27.56430 0.08536 1.02216
                                   CHANNELS 3 Zrotation Xrotation Yrotation
                                   End Site
                                   {
                                        OFFSET 16.74430 -0.60000 1.50291
                                   }
                              }
                         }
                    }
               }
               JOINT RightShoulder
               {
                    OFFSET -8.99000 -0.36225 -0.22000
                    CHANNELS 3 Zrotation Xrotation Yrotation
                    JOINT RightArm
                    {
                         OFFSET -10.28270 -0.00338 0.32212
                         CHANNELS 3 Zrotation Xrotation Yrotation
                         JOINT RightForeArm
                         {
                              OFFSET -32.89710 0.09914 -1.42434
                              CHANNELS 3 Zrotation Xrotation Yrotation
                              JOINT RightHand
                              {
                                   OFFSET -27.49210 0.08536 1.02216
                                   CHANNELS 3 Zrotation Xrotation Yrotation
                                   End Site
                                   {
                                        OFFSET -16.63120 -0.60000 1.50291
                                   }
                              }
                         }
                    }
               }
          }
     }
     JOINT LeftUpLeg
     {
          OFFSET 8.94580 -8.66707 0.10165
          CHANNELS 3 Zrotation Xrotation Yrotation
          JOINT LeftLeg
          {
               OFFSET 0.00000 -44.42270 1.37270
               CHANNELS 3 Zrotation Xrotation Yrotation
               JOINT LeftFoot
               {
                    OFFSET -0.25355 -42.09240 -1.46059
                    CHANNELS 3 Zrotation Xrotation Yrotation
                    JOINT LeftToes
                    {
                         OFFSET -0.04000 -4.41509 8.49910
                         CHANNELS 3 Zrotation Xrotation Yrotation
                         End Site
                         {
                              OFFSET 0.08000 -0.04745 9.77979
                         }
                    }
               }
          }
     }
     JOINT RightUpLeg
     {
          OFFSET -8.94580 -8.66707 0.10165
          CHANNELS 3 Zrotation Xrotation Yrotation
          JOINT RightLeg
          {
               OFFSET 0.00000 -44.42270 1.37270
               CHANNELS 3 Zrotation Xrotation Yrotation
               JOINT RightFoot
               {
                    OFFSET 0.25355 -42.09240 -1.46059
                    CHANNELS 3 Zrotation Xrotation Yrotation
                    JOINT RightToes
                    {
                         OFFSET 0.04000 -4.41509 8.49910
                         CHANNELS 3 Zrotation Xrotation Yrotation
                         End Site
                         {
                              OFFSET -0.08000 -0.13745 9.77979
                         }
                    }
               }
          }
     }
}
MOTION
Frames: 10
Frame Time: 0.01667
-67.70203 85.21265 -9.53878 6.18744 12.03114 161.87335 6.34637 16.74033 -6.34911 -0.01385 0.02448 0.00783 -5.96631 6.63428 11.91183 0.38282 9.35736 -5.03270 -104.02104 -13.95130 -91.85578 9.91429 32.92015 -78.58964 11.93004 14.88372 -8.32130 13.74499 10.12183 4.91613 81.12846 2.60017 94.20428 12.39208 32.65667 80.40259 7.86115 11.63581 7.37631 22.89932 -24.69414 -35.38334 -18.59546 20.09811 72.52255 -24.25998 0.00947 0.00979 14.10199 4.74259 -37.27199 -22.36872 3.58428 12.59837 46.18443 31.30628 -50.82332 -24.59933 -0.00006 0.00581 -8.17083 -75.76304 11.21225 
-68.41753 84.53629 -11.56970 6.77157 11.76506 161.25777 8.24390 16.11532 -6.42582 -0.01348 0.02327 0.00733 -6.45623 6.80572 12.15421 -0.27520 9.36548 -5.14039 -104.52972 -9.32833 -93.38768 14.35915 30.36243 -78.52644 7.65963 15.85649 -7.18174 13.43846 10.13090 5.19567 80.45702 3.91609 97.53278 13.46829 33.06200 76.57431 6.41932 11.91575 7.17505 22.63226 -26.21750 -37.82117 -18.41950 22.45095 74.17548 -27.93648 -0.05120 0.02573 14.90067 6.02480 -35.89273 -22.88256 3.84516 12.97689 46.68045 32.63007 -50.65679 -24.04060 0.00038 0.00496 -8.26147 -76.54642 10.40515 
-69.24086 83.85969 -13.64703 7.39495 11.47857 160.60892 9.97229 15.69226 -6.41224 -0.01340 0.02249 0.00662 -6.65785 6.76880 12.37445 -1.12709 9.30326 -5.43493 -104.59225 -6.33670 -94.54884 18.07302 26.46971 -77.95570 2.02498 17.50422 -6.58133 13.29949 10.02635 5.42412 79.75242 5.32356 100.52524 14.43054 33.50011 73.21204 4.98629 12.21307 6.80098 22.38890 -27.45523 -39.99863 -18.68941 24.71557 76.08507 -28.58084 -0.01627 0.00874 13.13845 6.73333 -34.90648 -23.44248 4.10825 13.37600 47.06516 33.88677 -50.28566 -23.53844 0.00082 0.00386 -7.82844 -77.02670 10.02733 
-70.16286 83.20793 -15.74248 8.03883 11.17512 159.93472 11.53222 15.44661 -6.32377 -0.01322 0.02065 0.00634 -6.61963 6.56281 12.57177 -1.68497 9.15078 -5.61606 -104.72762 -3.88692 -95.41770 21.47655 22.07250 -77.75745 -3.80723 17.38427 -7.29947 13.31119 9.85559 5.66497 79.01913 6.75667 103.06953 15.16347 33.99855 70.44922 3.60510 12.50851 6.30978 22.19007 -28.45256 -41.88474 -19.33529 26.75360 78.13345 -29.98376 -0.01206 0.00442 12.82934 7.07426 -34.39293 -24.03973 4.37965 13.79881 47.28674 35.02266 -49.67517 -23.10243 0.00126 0.00267 -6.77311 -77.12727 10.20269 
-71.17609 82.61143 -17.79769 8.68312 10.87812 159.24580 12.90082 15.29823 -6.17609 -0.00796 0.00961 -0.00204 -6.39648 6.32357 12.76656 -2.39501 9.08489 -4.57721 -103.81683 -7.04065 -95.06569 19.65795 23.44605 -77.32986 -2.50463 15.78972 -7.77285 13.53706 9.74601 4.74486 80.48177 6.83205 99.66593 11.59560 32.46823 76.81939 8.38467 11.31509 4.87550 22.05897 -29.22660 -43.44477 -20.34711 28.47063 80.21830 -30.08680 -0.00239 0.00405 12.00084 7.02782 -34.35519 -24.66637 4.66900 14.25278 47.30231 35.98674 -48.81023 -22.74302 0.00171 0.00155 -5.08097 -76.75749 10.98051 
-72.26934 82.11258 -19.73179 9.30330 10.61876 158.56241 14.04146 15.23754 -5.99330 -0.01141 0.00634 -0.00593 -6.00735 6.09455 12.94806 -2.90457 9.08286 -3.20809 -102.29345 -13.77286 -93.98411 14.33775 28.12469 -77.18772 3.15570 11.95554 -9.67327 13.41821 9.65577 3.48959 83.39242 5.50057 93.12724 9.29077 33.42931 85.38213 11.58268 10.55386 3.77336 21.91178 -29.70186 -44.69774 -22.07894 29.81582 82.43086 -29.83847 -0.00342 -0.00071 11.56240 6.19185 -34.89613 -25.26386 4.94249 14.73495 47.03224 36.40942 -47.11158 -39.38845 0.03151 0.03232 11.98126 -75.34702 10.45437 
-73.42728 81.76017 -21.50223 9.86359 10.42856 157.90875 14.90898 15.28207 -5.80094 -0.01761 0.00794 -0.00575 -5.48967 5.88676 13.11767 -3.14780 9.13748 -2.12386 -100.15797 -22.90868 -92.30064 6.72038 34.55839 -77.34524 11.34693 8.42480 -10.33155 12.81356 9.59448 2.47423 86.76970 2.55814 85.35066 7.81002 35.41092 94.86150 13.50127 10.04244 3.22405 22.13773 -29.66114 -44.33030 -23.62567 30.64254 83.31651 -29.15606 -0.00616 0.00526 11.38377 4.88101 -36.00887 -25.59252 5.10840 15.22385 44.13574 38.66624 -44.09257 -30.63331 -0.01994 -0.01766 6.86589 -73.32410 10.63406 
-74.55352 82.83707 -23.02460 10.40285 10.36811 157.26682 15.71413 14.84599 -5.87557 0.00150 -0.03203 -0.02002 -4.75238 6.50257 13.18094 -2.15264 5.95561 -1.91805 -96.58082 -32.42884 -87.30132 0.10055 40.50473 -79.09724 17.43211 7.55544 -15.04385 14.41820 6.95025 1.84790 87.10799 -1.97102 75.75603 6.10975 36.87048 103.57822 12.47318 13.97741 1.48158 21.96328 -29.23369 -43.79040 -24.89010 31.26045 82.49247 -26.63960 0.02285 0.02146 9.11878 3.05394 -35.33730 -25.01610 5.20973 15.47491 40.48257 40.12780 -40.44499 -22.42095 -0.05279 -0.07659 10.97235 -66.68672 18.95233 
-75.72727 83.64979 -24.15764 10.96522 10.42839 156.61502 16.53320 13.99647 -6.23460 0.00754 -0.03116 -0.02135 -3.85994 7.87973 13.10199 -0.16778 0.70330 -2.58778 -89.92097 -41.43104 -78.72369 -5.27853 45.70400 -82.39066 22.06743 8.51020 -20.70222 17.81136 2.71415 1.63492 83.77311 -7.66606 65.27946 4.52035 37.62311 111.46688 10.25121 19.65002 -0.87667 21.59722 -28.70391 -42.98252 -26.19796 31.87689 80.17845 -23.68753 0.06071 0.05285 6.27228 0.98515 -33.29307 -23.69253 5.31093 15.49471 36.03557 40.88521 -36.06330 -14.51178 -0.09416 -0.12473 12.34738 -56.35179 23.65460 
-76.90166 84.47260 -24.97926 11.49553 10.57378 155.92610 17.29726 12.76642 -6.84585 0.00527 -0.02767 -0.02254 -2.88656 10.06134 12.91906 2.53666 -5.65164 -4.13385 -78.83868 -48.89291 -65.87742 -9.34008 49.88999 -87.10625 25.18935 10.73623 -25.82320 22.62619 -2.29893 1.80801 76.94762 -12.63071 54.57141 2.01907 38.25870 118.38431 6.93295 25.60464 -3.81283 21.15596 -28.27641 -41.78681 -27.83636 32.69677 76.64074 -20.41271 0.10079 0.08134 3.13811 -1.43764 -30.27220 -21.92861 5.44611 15.29578 30.81647 41.06064 -30.82073 -6.69891 -0.14480 -0.15511 11.62817 -43.95933 25.13008 
